# xmcd CD database file
#
# Track frame offsets:
#	150
#	10820
#	21180
#	34412
#	45062
#	57382
#	67590
#	77537
#	88935
#	100530
#	111727
#	121810
#	131685
#	143732
#	156155
#	169205
#	179777
#	189122
#	200407
#	211305
#	220160
#	230790
#	243437
#	254777
#
# Disc length: 3538 seconds
#
# Revision: 4
# Processed by: cddbd v1.5.1PL2 Copyright (c) Steve Scherf et al.
# Submitted via: CDex 1.51
#
DISCID=540dd018
DTITLE=George Jones - Cup Of Loneliness (The Classic Mercury Years) -Disc 1
DYEAR=1994
DGENRE=Country
TTITLE0=No Money In This Deal
TTITLE1=Why Baby Why
TTITLE2=Seasons Of My Heart
TTITLE3=I'm Ragged But I'm Right
TTITLE4=Just One More
TTITLE5=Don't Stop The Music
TTITLE6=Too Much Water
TTITLE7=Flame In My Heart
TTITLE8=Hearts In My Dreams
TTITLE9=Tall Tall Trees
TTITLE10=No Use Crying
TTITLE11=Frozen Heart
TTITLE12=Cup Of Loneliness
TTITLE13=Take The Devil Out Of Me
TTITLE14=Color Of Blue
TTITLE15=A New Baby For Christmas
TTITLE16=Maybe Little Baby
TTITLE17=I'm Gonna Burn Your Playhouse Down
TTITLE18=Will The Circle Be Unbroken
TTITLE19=If I Don't Love You (Grits Ain't Groceries)
TTITLE20=Treasure Of Love
TTITLE21=White Lightning
TTITLE22=Mr. Fool
TTITLE23=Who Shot Sam
EXTD=YEAR: 1994
EXTT0=
EXTT1=
EXTT2=
EXTT3=
EXTT4=
EXTT5=
EXTT6=
EXTT7=
EXTT8=
EXTT9=
EXTT10=
EXTT11=
EXTT12=
EXTT13=
EXTT14=
EXTT15=
EXTT16=
EXTT17=
EXTT18=
EXTT19=
EXTT20=
EXTT21=
EXTT22=
EXTT23=
PLAYORDER=
